<svg xmlns="http://www.w3.org/2000/svg" width="25" height="25" id="backup">
  <circle cx="37.045" cy="28.409" r="12.5" fill="#50b748" fill-rule="evenodd" transform="translate(-24.545 -15.909)"></circle>
  <path fill="#fff" d="M3.56 1.023 1.929 4.861l4.136.498-.5-.867-.43-.744a5.995 5.995 0 0 1 8.063 8.26 5.998 5.998 0 0 1-6.75 2.797A5.997 5.997 0 0 1 2 9.008H1a7.006 7.006 0 0 0 5.19 6.762c3.057.819 6.29-.52 7.872-3.262a7.004 7.004 0 0 0-1.113-8.45A6.986 6.986 0 0 0 8.914 2.07a6.992 6.992 0 0 0-4.28.813l-1.073-1.86ZM8 6.008v3.004H5v1h4V6.008H8z" color="#000" font-family="sans-serif" font-weight="400" overflow="visible" style="line-height:normal;text-indent:0;text-align:start;text-decoration-line:none;text-decoration-style:solid;text-decoration-color:#000;text-transform:none;block-progression:tb;isolation:auto;mix-blend-mode:normal" transform="translate(5.032 3.984)"></path>
</svg>
